<?xml version="1.0" standalone="no"?><!DOCTYPE svg PUBLIC "-//W3C//DTD SVG 1.1//EN" "http://www.w3.org/Graphics/SVG/1.1/DTD/svg11.dtd"><svg t="1654582800583" class="icon" viewBox="0 0 1024 1024" version="1.1" xmlns="http://www.w3.org/2000/svg" p-id="14765" xmlns:xlink="http://www.w3.org/1999/xlink" width="200" height="200"><defs><style type="text/css">@font-face { font-family: feedback-iconfont; src: url("//at.alicdn.com/t/font_1031158_u69w8yhxdu.woff2?t=1630033759944") format("woff2"), url("//at.alicdn.com/t/font_1031158_u69w8yhxdu.woff?t=1630033759944") format("woff"), url("//at.alicdn.com/t/font_1031158_u69w8yhxdu.ttf?t=1630033759944") format("truetype"); }
</style></defs><path d="M448 917.376C448 917.333333 576 917.333333 576 917.333333c0.085333 0 0-42.709333 0-42.709333C576 874.666667 448 874.666667 448 874.666667c-0.085333 0 0 42.709333 0 42.709333z m371.349333-173.034667C809.6 745.877333 799.573333 746.666667 789.333333 746.666667a21.333333 21.333333 0 0 1-21.333333-21.333334V384a21.333333 21.333333 0 0 1 21.333333-21.333333 191.146667 191.146667 0 0 1 92.373334 23.637333C828.202667 234.517333 681.045333 128 511.296 128 341.290667 128 193.749333 234.816 140.458667 387.328A191.125333 191.125333 0 0 1 234.666667 362.666667a21.333333 21.333333 0 0 1 21.333333 21.333333v341.333333a21.333333 21.333333 0 0 1-21.333333 21.333334 192 192 0 0 1-148.906667-313.216 21.269333 21.269333 0 0 1 0.042667-8.682667C127.36 228.288 304.469333 85.333333 511.274667 85.333333c209.706667 0 388.544 146.944 427.008 347.093334l0.213333 1.344A191.210667 191.210667 0 0 1 981.333333 554.666667c0 70.4-37.909333 131.968-94.421333 165.397333-57.642667 100.693333-154.752 174.762667-268.778667 204.074667A42.517333 42.517333 0 0 1 576 960h-128c-23.573333 0-42.666667-19.157333-42.666667-42.624v-42.752c0-23.552 18.922667-42.624 42.666667-42.624h128c23.573333 0 42.666667 19.157333 42.666667 42.624v5.141333a392.810667 392.810667 0 0 0 200.682666-135.424zM85.333333 554.666667c0.298667 133.589333 128 148.949333 128 148.949333V406.144s-128.298667 14.933333-128 148.522667z m853.333334 0c0.298667-133.589333-128-148.522667-128-148.522667v297.472s127.701333-15.36 128-148.949333z" fill="#3D3D3D" p-id="14766"></path></svg>