<?xml version="1.0" standalone="no"?><!DOCTYPE svg PUBLIC "-//W3C//DTD SVG 1.1//EN" "http://www.w3.org/Graphics/SVG/1.1/DTD/svg11.dtd"><svg t="1654425872494" class="icon" viewBox="0 0 1024 1024" version="1.1" xmlns="http://www.w3.org/2000/svg" p-id="4693" xmlns:xlink="http://www.w3.org/1999/xlink" width="200" height="200"><defs><style type="text/css">@font-face { font-family: feedback-iconfont; src: url("//at.alicdn.com/t/font_1031158_u69w8yhxdu.woff2?t=1630033759944") format("woff2"), url("//at.alicdn.com/t/font_1031158_u69w8yhxdu.woff?t=1630033759944") format("woff"), url("//at.alicdn.com/t/font_1031158_u69w8yhxdu.ttf?t=1630033759944") format("truetype"); }
</style></defs><path d="M350.627393 902.950543h-248.019377a20.161575 20.161575 0 0 1-19.921556-19.921556V90.487069a20.161575 20.161575 0 0 1 19.921556-19.921556h696.534417a20.161575 20.161575 0 0 1 19.921556 19.921556v334.026096a30.322369 30.322369 0 1 0 60.564732 0V90.487069A80.886319 80.886319 0 0 0 799.142433 10.000781H102.608016A80.886319 80.886319 0 0 0 22.121728 90.487069v792.621924a80.886319 80.886319 0 0 0 80.486288 80.486288h248.019377a30.322369 30.322369 0 0 0 0-60.564732z" p-id="4694"></path><path d="M711.455582 149.291663H180.134073a30.322369 30.322369 0 0 0 0 60.564732h532.121572a30.322369 30.322369 0 1 0-0.880069-60.564732z" p-id="4695"></path><path d="M741.617939 326.745527a30.642394 30.642394 0 0 0-30.322369-30.322369H179.97406a30.322369 30.322369 0 0 0 0 60.564732h532.121572a29.922338 29.922338 0 0 0 29.522307-30.242363z" p-id="4696"></path><path d="M150.691773 481.557622a32.882569 32.882569 0 1 0 32.882569-32.882569 32.882569 32.882569 0 0 0-32.802563 32.882569z" p-id="4697"></path><path d="M265.740761 481.557622a32.882569 32.882569 0 1 0 32.882569-32.882569 32.882569 32.882569 0 0 0-32.882569 32.882569z" p-id="4698"></path><path d="M380.869755 481.557622a32.882569 32.882569 0 1 0 32.882569-32.882569 32.882569 32.882569 0 0 0-32.882569 32.882569z" p-id="4699"></path><path d="M655.051176 588.92601a136.010626 136.010626 0 1 0 163.132745 101.927963 136.010626 136.010626 0 0 0-163.212751-101.927963m-14.401125-62.404876A200.015626 200.015626 0 1 1 490.798344 766.45988 200.015626 200.015626 0 0 1 640.650051 526.601141z" p-id="4700"></path><path d="M973.31604 992.797562a40.003125 40.003125 0 0 1-34.802719-8.400656l-125.289788-103.528088a40.003125 40.003125 0 0 1-4.800375-56.3244 40.003125 40.003125 0 0 1 56.3244-4.800375l125.289789 103.528088a40.003125 40.003125 0 0 1-16.801313 69.525431z" p-id="4701"></path></svg>