<?xml version="1.0" encoding="UTF-8"?>
<svg width="16px" height="16px" viewBox="0 0 16 16" version="1.1" xmlns="http://www.w3.org/2000/svg" xmlns:xlink="http://www.w3.org/1999/xlink">
    <title>icon/wechat</title>
    <g id="icon/wechat" stroke="none" stroke-width="1" fill="none" fill-rule="evenodd">
        <path d="M8,1 C12.4123711,1 16,4.13917526 16,8 C16,11.8608247 12.4398625,15 8.0137457,15 L2.34178246,15.6826498 C2.20470055,15.6991483 2.08019901,15.6013961 2.0637005,15.4643142 C2.05826682,15.4191671 2.06524974,15.373393 2.08389754,15.3319196 L2.80906992,13.7191079 C2.88659035,13.5466161 2.83824934,13.3435398 2.69130436,13.224502 C2.33719735,12.9376456 2.07423643,12.705501 1.9024216,12.5280683 C0.719848591,11.3068285 0,9.72839849 0,8 C0,4.13917526 3.58762887,1 8,1 Z M8,3.90909091 C5.18836855,3.90909091 2.90909091,5.69995191 2.90909091,7.90909091 C2.90909091,10.1182299 5.18836855,11.9090909 8,11.9090909 C10.8116315,11.9090909 13.0909091,10.1182299 13.0909091,7.90909091 C13.0909091,5.69995191 10.8116315,3.90909091 8,3.90909091 Z" id="形状结合" fill="#03AD8F" fill-rule="nonzero"></path>
    </g>
</svg>