<?xml version="1.0" encoding="UTF-8"?>
<svg width="16px" height="16px" viewBox="0 0 16 16" version="1.1" xmlns="http://www.w3.org/2000/svg" xmlns:xlink="http://www.w3.org/1999/xlink">
    <title>icon/BankTransfer</title>
    <g id="icon/BankTransfer" stroke="none" stroke-width="1" fill="none" fill-rule="evenodd">
        <path d="M15.1284942,13.7165793 C15.6098135,13.7165793 16,14.1067658 16,14.5880852 C16,15.03238 15.6675334,15.3990231 15.237814,15.4528007 L15.1284942,15.459591 L0.871505847,15.459591 C0.390186458,15.459591 -5.06261699e-14,15.0694045 -5.06261699e-14,14.5880852 C-5.06261699e-14,14.1437903 0.332466568,13.7771472 0.762186005,13.7233696 L0.871505847,13.7165793 L15.1284942,13.7165793 Z M12.8631334,6.85328213 C13.3074282,6.85328213 13.6740713,7.1857487 13.7278489,7.61546814 L13.7346392,7.72478798 L13.7346392,12.5822385 C13.7346392,13.0635579 13.3444527,13.4537444 12.8631334,13.4537444 C12.4188385,13.4537444 12.0521954,13.1212778 11.9984178,12.6915584 L11.9916275,12.5822385 L11.9916275,7.72478798 C11.9916275,7.24346859 12.381814,6.85328213 12.8631334,6.85328213 Z M3.04845238,6.85328213 C3.4927472,6.85328213 3.85939029,7.1857487 3.91316796,7.61546814 L3.91995823,7.72478798 L3.91995823,12.5822385 C3.91995823,13.0635579 3.52977177,13.4537444 3.04845238,13.4537444 C2.60415756,13.4537444 2.23751447,13.1212778 2.1837368,12.6915584 L2.17694653,12.5822385 L2.17694653,7.72478798 C2.17694653,7.24346859 2.56713299,6.85328213 3.04845238,6.85328213 Z M7.95067277,6.85328213 C8.39496759,6.85328213 8.76161068,7.1857487 8.81538835,7.61546814 L8.82217862,7.72478798 L8.82217862,12.5822385 C8.82217862,13.0635579 8.43199216,13.4537444 7.95067277,13.4537444 C7.50637795,13.4537444 7.13973486,13.1212778 7.08595719,12.6915584 L7.07916692,12.5822385 L7.07916692,7.72478798 C7.07916692,7.24346859 7.46935338,6.85328213 7.95067277,6.85328213 Z M7.50002198,0.125559261 C7.77762018,-0.0421469088 8.12538322,-0.0418313386 8.4026766,0.126378356 L8.4026766,0.126378356 L15.0707074,4.1712908 C15.8245337,4.62857145 15.5003836,5.78792414 14.6187036,5.78792414 L14.6187036,5.78792414 L1.25526976,5.78792414 C0.372758673,5.78792414 0.0492526897,4.62681324 0.804618974,4.17047171 L0.804618974,4.17047171 Z M7.94922271,1.88898892 L4.38149564,4.04487651 L11.5016984,4.04487651 L7.94922271,1.88898892 Z" id="形状结合" fill="#2543B6" fill-rule="nonzero"></path>
    </g>
</svg>