<?xml version="1.0" encoding="UTF-8"?>
<svg width="16px" height="16px" viewBox="0 0 16 16" version="1.1" xmlns="http://www.w3.org/2000/svg" xmlns:xlink="http://www.w3.org/1999/xlink">
    <title>icon/Alipay</title>
    <g id="icon/Alipay" stroke="none" stroke-width="1" fill="none" fill-rule="evenodd">
        <path d="M6.10608554,7.10542736e-15 L8.34842045,7.10542736e-15 L8.34842045,2.08945221 L14.1234044,2.08945221 L14.1234044,3.3107482 L8.34842045,3.3107482 L8.34842045,5.51066249 L12.80405,5.51066249 L12.287282,6.76381606 C11.4570353,8.43468749 10.1802278,10.1376911 8.61553214,11.3747786 C9.37921625,11.7373321 10.5409231,12.0400339 11.8361371,12.3548089 C12.699613,12.5646589 14.0875674,12.7963748 16,13.0499568 L14.7977538,15.2998343 C13.4086872,14.9303147 7.99235209,12.7885928 7.27386939,12.3548089 C5.51757836,13.4312357 3.20779604,14.6250593 0.733022304,15.2998343 L7.62945263e-13,13.4520008 C2.29914463,12.9378865 4.20834322,12.2744786 5.836904,11.3747786 C5.03858989,10.7321357 4.33607348,10.0412946 3.76128732,9.28618927 C3.43596552,8.86255331 3.16798465,8.34659846 2.95390837,7.83514338 C2.9272147,7.77136888 2.88905248,7.67607571 2.8394217,7.54926387 C2.75122889,6.98884286 2.6840907,6.63443782 2.63800714,6.48604875 L1.56826623,6.48604875 L1.52600782,5.51066249 L6.10608554,5.51066249 L6.10608554,3.3107482 L0.733022304,3.3107482 L0.733022304,2.08945221 L6.10608554,2.08945221 L6.10608554,7.10542736e-15 Z M7.21000426,10.661829 C8.56739162,9.61484751 9.73880842,8.30505281 10.4455191,6.48604875 L2.63800714,6.48604875 L2.8394217,7.54353864 C3.65590908,7.51780923 4.07076356,7.51780923 4.08398514,7.54353864 C4.39674432,8.15217313 4.9430605,8.83115553 5.43997661,9.28618927 C6.14278928,9.92976566 6.53942041,10.211979 7.21000426,10.661829 Z" id="支" fill="#1882D4" fill-rule="nonzero"></path>
    </g>
</svg>