<?xml version="1.0" standalone="no"?><!DOCTYPE svg PUBLIC "-//W3C//DTD SVG 1.1//EN" "http://www.w3.org/Graphics/SVG/1.1/DTD/svg11.dtd"><svg t="1654582612724" class="icon" viewBox="0 0 1024 1024" version="1.1" xmlns="http://www.w3.org/2000/svg" p-id="10112" xmlns:xlink="http://www.w3.org/1999/xlink" width="200" height="200"><defs><style type="text/css">@font-face { font-family: feedback-iconfont; src: url("//at.alicdn.com/t/font_1031158_u69w8yhxdu.woff2?t=1630033759944") format("woff2"), url("//at.alicdn.com/t/font_1031158_u69w8yhxdu.woff?t=1630033759944") format("woff"), url("//at.alicdn.com/t/font_1031158_u69w8yhxdu.ttf?t=1630033759944") format("truetype"); }
</style></defs><path d="M702.3616 917.6064c-93.4912 0-169.5744-76.0832-169.5744-169.5744s76.0832-169.5744 169.5744-169.5744 169.5744 76.0832 169.5744 169.5744-76.0832 169.5744-169.5744 169.5744z m-97.3824-233.3696c-12.4928 18.7392-19.3536 41.472-19.456 63.7952 0 31.232 12.1856 60.6208 34.2016 82.6368 22.1184 22.1184 51.4048 34.2016 82.6368 34.2016 18.8416 0 37.6832-4.8128 54.6816-13.824l2.048-1.1264L606.208 682.2912l-1.2288 1.9456z m97.4848-53.0432c-19.0464 0-37.9904 4.8128-54.6816 13.824l-2.048 1.1264 152.8832 167.7312 1.3312-1.9456c12.4928-18.7392 19.3536-41.472 19.456-63.7952 0-31.232-12.1856-60.6208-34.2016-82.6368-21.6064-21.6064-50.176-33.6896-80.6912-34.2016l-2.048-0.1024zM189.0304 876.544c-13.1072 0-24.4736-9.3184-26.9312-22.2208l-0.3072-1.4336h-0.4096l0.2048-5.632c2.1504-63.0784 23.1424-123.392 60.5184-174.2848 34.2016-46.4896 80.4864-82.5344 133.8368-104.2432l3.2768-1.3312-2.9696-1.8432c-28.8768-18.0224-53.1456-42.9056-70.144-71.9872-18.3296-31.3344-27.9552-67.1744-27.9552-103.424 0.8192-54.8864 22.8352-106.3936 61.952-144.896 39.1168-38.5024 90.8288-59.6992 145.8176-59.6992 54.8864 0 106.7008 21.1968 145.8176 59.6992 39.1168 38.5024 61.1328 90.0096 61.952 144.896 0 37.2736-10.1376 73.8304-29.2864 105.6768-15.6672 26.0096-37.4784 48.8448-62.976 66.048l-2.9696 1.9456 4.608 1.6384 0.6144 0.1024 0.512 0.2048c0.2048 0.1024 0.4096 0.1024 0.6144 0.2048h0.2048c0.4096 0.1024 0.7168 0.2048 1.1264 0.4096l1.7408 0.6144h0.1024c9.8304 1.6384 17.92 8.3968 21.2992 17.6128 3.7888 10.5472 0.6144 22.528-7.7824 29.7984-4.9152 4.3008-11.264 6.656-17.7152 6.656-3.8912 0-7.7824-0.8192-11.3664-2.4576l-1.7408-0.8192-0.512 1.2288-4.9152-1.8432c-29.3888-11.1616-62.464-12.0832-91.136-12.0832-66.9696 0-129.536 24.7808-176.2304 69.7344-46.4896 44.8512-73.6256 106.1888-76.288 172.8512l-0.2048 5.2224h-0.2048l-0.3072 1.4336c-3.1744 13.1072-16.0768 22.2208-31.8464 22.2208z m276.7872-638.3616c-83.7632 0-151.8592 68.096-151.8592 151.8592 0 83.7632 68.096 151.8592 151.8592 151.8592 83.7632 0 151.8592-68.096 151.8592-151.8592 0-83.6608-68.096-151.8592-151.8592-151.8592z" fill="#5C5C5C" p-id="10113"></path></svg>