<?xml version="1.0" standalone="no"?><!DOCTYPE svg PUBLIC "-//W3C//DTD SVG 1.1//EN" "http://www.w3.org/Graphics/SVG/1.1/DTD/svg11.dtd"><svg t="1654582125305" class="icon" viewBox="0 0 1024 1024" version="1.1" xmlns="http://www.w3.org/2000/svg" p-id="5332" xmlns:xlink="http://www.w3.org/1999/xlink" width="200" height="200"><defs><style type="text/css">@font-face { font-family: feedback-iconfont; src: url("//at.alicdn.com/t/font_1031158_u69w8yhxdu.woff2?t=1630033759944") format("woff2"), url("//at.alicdn.com/t/font_1031158_u69w8yhxdu.woff?t=1630033759944") format("woff"), url("//at.alicdn.com/t/font_1031158_u69w8yhxdu.ttf?t=1630033759944") format("truetype"); }
</style></defs><path d="M752 479.456c10.656-0.992 21.344-0.992 33.28-2.624 115.424 6.464 205.792 105.056 205.792 224.512s-90.368 218.048-205.792 224.512a247.744 247.744 0 0 1-32 0v49.6c0 18.016-13.952 32.704-31.36 33.088H256a32.128 32.128 0 0 1-22.4-9.92l-192-198.4a34.272 34.272 0 0 1-9.6-23.168V33.056C32.32 14.944 46.464 0.352 64 0h656.64c17.408 0.352 31.36 15.04 31.36 33.056v446.4zM224 894.784v-84.64H140.8L224 894.784zM191.36 198.4c-17.664 0-32-14.816-32-33.056 0-18.272 14.336-33.088 32-33.088h148.48c17.664 0 32 14.816 32 33.088 0 18.24-14.336 33.056-32 33.056H191.36z m0 283.04c-17.664 0-32-14.784-32-33.056 0-18.24 14.336-33.056 32-33.056h401.92c17.664 0 32 14.784 32 33.056 0 18.24-14.336 33.056-32 33.056H191.36z m0-130.944c-17.664 0-32-14.784-32-33.056 0-18.24 14.336-33.056 32-33.056h401.92c17.664 0 32 14.784 32 33.056 0 18.24-14.336 33.056-32 33.056H191.36zM689.92 941.12l-1.28-37.696c-73.856-36.864-121.184-113.696-122.24-198.4a225.056 225.056 0 0 1 19.2-90.624H191.36c-17.664 0-32-14.784-32-33.056 0-18.24 14.336-33.056 32-33.056h436.48a232.16 232.16 0 0 1 60.8-45.632V66.144H96V744.64h160.64c8.32 0 16.32 3.392 22.176 9.472 5.888 6.08 9.184 14.336 9.184 22.912v164.032h401.92z m81.92-235.456l51.2-63.488a31.424 31.424 0 0 1 45.44-1.312c12.896 12.608 13.472 33.6 1.28 46.944l-77.44 84.672a30.272 30.272 0 0 1-23.04 10.56 31.424 31.424 0 0 1-21.76-8.576l-56.96-52.928a34.56 34.56 0 0 1 0-46.944 31.488 31.488 0 0 1 22.72-9.792c8.544 0 16.704 3.52 22.72 9.792l35.84 31.072z m12.16 154.112c40.672 0 79.68-16.768 108.384-46.528a160.8 160.8 0 0 0 44.576-112.192c0-64.256-37.504-122.176-94.976-146.72-57.472-24.512-123.584-10.816-167.456 34.72-43.872 45.536-56.864 113.92-32.896 173.184 24 59.296 80.192 97.792 142.368 97.536z" p-id="5333"></path></svg>