<?xml version="1.0" standalone="no"?><!DOCTYPE svg PUBLIC "-//W3C//DTD SVG 1.1//EN" "http://www.w3.org/Graphics/SVG/1.1/DTD/svg11.dtd"><svg t="1654582464094" class="icon" viewBox="0 0 1024 1024" version="1.1" xmlns="http://www.w3.org/2000/svg" p-id="6779" xmlns:xlink="http://www.w3.org/1999/xlink" width="200" height="200"><defs><style type="text/css">@font-face { font-family: feedback-iconfont; src: url("//at.alicdn.com/t/font_1031158_u69w8yhxdu.woff2?t=1630033759944") format("woff2"), url("//at.alicdn.com/t/font_1031158_u69w8yhxdu.woff?t=1630033759944") format("woff"), url("//at.alicdn.com/t/font_1031158_u69w8yhxdu.ttf?t=1630033759944") format("truetype"); }
</style></defs><path d="M315.216 144.576a19.2 19.2 0 0 1 27.152 0l90.672 90.656a19.2 19.2 0 0 1 0 27.152l-90.672 90.656a19.2 19.2 0 1 1-27.152-27.152l57.888-57.872H144a19.2 19.2 0 1 1 0-38.4h229.12L315.2 171.712a19.2 19.2 0 0 1 0-27.152z m171.024 42.848a19.2 19.2 0 0 1 19.2-19.2h269.056a84.688 84.688 0 0 1 84.704 84.672V806.944c0 17.12-8.032 32-17.232 43.568-9.312 11.728-21.248 21.888-32.432 30.032a296.864 296.864 0 0 1-43.808 26.304l-0.832 0.384-0.24 0.128-0.096 0.032s-0.016 0.016-8.112-17.392l-7.52 17.68-0.032-0.016-0.064-0.032-0.256-0.112-0.832-0.368-2.976-1.344a287.152 287.152 0 0 1-41.44-23.408c-10.56-7.232-21.84-16.24-31.04-26.736-8.704 10.384-19.376 19.296-29.392 26.496a272.496 272.496 0 0 1-42.48 24.848l-0.8 0.368-0.24 0.112-0.08 0.032h-0.032c0 0.016-0.016 0.016-7.824-17.52a3984.48 3984.48 0 0 1-7.808 17.536h-0.048l-0.064-0.048-0.24-0.112-0.8-0.368c-0.688-0.32-1.664-0.768-2.864-1.36a272.512 272.512 0 0 1-39.632-23.504c-9.872-7.088-20.384-15.856-29.04-26.064-8.656 10.208-19.168 18.976-29.04 26.08a272.496 272.496 0 0 1-42.48 24.848l-0.816 0.368-0.24 0.112-0.08 0.032h-0.016c0 0.016-0.032 0.016-7.84-17.52a3984.48 3984.48 0 0 1-7.808 17.536h-0.032l-0.08-0.048-0.24-0.112-0.8-0.368a268.864 268.864 0 0 1-12.672-6.368 272.512 272.512 0 0 1-29.824-18.48c-10-7.2-20.672-16.112-29.392-26.496-9.184 10.496-20.48 19.504-31.04 26.736a287.296 287.296 0 0 1-44.4 24.752l-0.848 0.368-0.24 0.112-0.08 0.032h-0.016s-0.032 0-7.52-17.664a3984.48 3984.48 0 0 1-7.808 17.536h-0.048l-0.064-0.048-0.24-0.112-0.8-0.368c-0.688-0.32-1.664-0.768-2.864-1.36a272.656 272.656 0 0 1-39.632-23.504c-10.848-7.792-22.464-17.6-31.536-29.12-9.008-11.424-16.704-26.048-16.704-43.024V353.152a19.2 19.2 0 1 1 38.4 0v456.848c0 5.12 2.368 11.52 8.448 19.248 6.016 7.632 14.528 15.04 23.808 21.728a233.552 233.552 0 0 0 29.248 17.76 262.928 262.928 0 0 0 31.2-18c9.792-6.72 18.752-14.176 25.104-21.84 6.432-7.776 8.8-14.08 8.8-18.896a19.2 19.2 0 1 1 38.4 0c0 5.12 2.352 11.52 8.448 19.248 6.016 7.632 14.512 15.04 23.808 21.728a233.696 233.696 0 0 0 29.04 17.664 241.184 241.184 0 0 0 29.04-17.664c9.28-6.672 17.776-14.08 23.792-21.728 6.096-7.712 8.464-14.128 8.464-19.248a19.2 19.2 0 1 1 38.4 0c0 5.12 2.368 11.52 8.448 19.248 6.016 7.632 14.528 15.04 23.808 21.728a233.696 233.696 0 0 0 29.04 17.664 241.184 241.184 0 0 0 29.04-17.664c9.28-6.672 17.792-14.08 23.808-21.728 6.08-7.712 8.448-14.128 8.448-19.248a19.2 19.2 0 1 1 38.4 0c0 4.816 2.352 11.12 8.8 18.896 6.336 7.664 15.312 15.12 25.12 21.84a248.896 248.896 0 0 0 31.04 17.92 273.184 273.184 0 0 0 30.8-19.12c9.728-7.088 18.672-14.928 25.024-22.928 6.464-8.144 8.88-14.72 8.88-19.68v-0.192V252.896a46.288 46.288 0 0 0-46.304-46.272H505.44a19.2 19.2 0 0 1-19.2-19.2z m-220.8 702.576l-7.808 17.536c4.848 2.16 10.4 2.224 15.296 0.144l-7.488-17.68z m165.008 0l-7.824 17.536a19.2 19.2 0 0 0 15.616 0l-7.792-17.536z m160.992 0l-7.808 17.536a19.2 19.2 0 0 0 15.616 0l-7.808-17.536z m165.008 0l-7.52 17.68c5.008 2.112 10.688 2.016 15.616-0.272l-8.096-17.408z m-363.68-466.208a19.2 19.2 0 0 1 26.56-5.504l94.56 62.128 91.728-61.984a19.2 19.2 0 0 1 21.504 31.808l-93.872 63.456v31.12h118.288a19.2 19.2 0 1 1 0 38.4h-118.288v53.6l118.432 0.944a19.2 19.2 0 1 1-0.288 38.4l-118.144-0.928v55.152a19.2 19.2 0 0 1-38.4 0v-55.312h-121.216a19.2 19.2 0 1 1 0-38.4h121.216v-53.456h-121.216a19.2 19.2 0 0 1 0-38.4h121.216v-30.96l-96.592-63.472a19.2 19.2 0 0 1-5.504-26.592z" p-id="6780"></path></svg>