<svg width="766" height="398" viewBox="0 0 766 398" fill="none" xmlns="http://www.w3.org/2000/svg">
<g clip-path="url(#clip0)">
<g opacity="0.2" filter="url(#filter0_f)">
<path d="M439.006 189.159C407.808 219.056 380.377 270.419 359.671 301.199C338.965 331.979 269.781 295.61 240.346 262.186C187.688 202.392 202.348 98.9638 273.089 31.1734C343.831 -36.617 443.865 -43.0991 496.523 16.6952C525.958 50.1196 530.381 91.026 519.709 137.873C501.869 144.761 470.204 159.263 439.006 189.159Z" fill="url(#paint0_linear)"/>
</g>
<g opacity="0.3" filter="url(#filter1_f)">
<path d="M705 204.5C705 299.769 641.662 377 563.53 377C518.375 377 348.342 365.641 322.44 325.474C303.525 296.142 368.78 186.08 368.78 186.08C368.78 186.08 375.549 131.279 412.67 93.9805C452.151 54.312 523.262 32 563.53 32C641.662 32 705 109.231 705 204.5Z" fill="url(#paint1_linear)"/>
</g>
</g>
<defs>
<filter id="filter0_f" x="124.376" y="-108.602" width="484.986" height="505.8" filterUnits="userSpaceOnUse" color-interpolation-filters="sRGB">
<feFlood flood-opacity="0" result="BackgroundImageFix"/>
<feBlend mode="normal" in="SourceGraphic" in2="BackgroundImageFix" result="shape"/>
<feGaussianBlur stdDeviation="42.185" result="effect1_foregroundBlur"/>
</filter>
<filter id="filter1_f" x="248.14" y="-38.86" width="527.72" height="486.72" filterUnits="userSpaceOnUse" color-interpolation-filters="sRGB">
<feFlood flood-opacity="0" result="BackgroundImageFix"/>
<feBlend mode="normal" in="SourceGraphic" in2="BackgroundImageFix" result="shape"/>
<feGaussianBlur stdDeviation="35.43" result="effect1_foregroundBlur"/>
</filter>
<linearGradient id="paint0_linear" x1="317.193" y1="40.1758" x2="495.855" y2="164.027" gradientUnits="userSpaceOnUse">
<stop stop-color="#2483FF"/>
<stop offset="1" stop-color="white" stop-opacity="0"/>
</linearGradient>
<linearGradient id="paint1_linear" x1="575.983" y1="44.4459" x2="427.763" y2="401.772" gradientUnits="userSpaceOnUse">
<stop stop-color="#03B39A"/>
<stop offset="1" stop-color="white" stop-opacity="0"/>
</linearGradient>
<clipPath id="clip0">
<rect width="880" height="5583" fill="white" transform="translate(-63 -75)"/>
</clipPath>
</defs>
</svg>
