<?xml version="1.0" standalone="no"?><!DOCTYPE svg PUBLIC "-//W3C//DTD SVG 1.1//EN" "http://www.w3.org/Graphics/SVG/1.1/DTD/svg11.dtd"><svg t="1659147979026" class="icon" viewBox="0 0 1024 1024" version="1.1" xmlns="http://www.w3.org/2000/svg" p-id="1791" xmlns:xlink="http://www.w3.org/1999/xlink" width="200" height="200"><defs><style type="text/css"></style></defs><path d="M512.85 511.04m-447.5 0a447.5 447.5 0 1 0 895 0 447.5 447.5 0 1 0-895 0Z" fill="#D80917" p-id="1792"></path><path d="M477.1 787.2c-0.84 0-1.71-0.05-2.55-0.18a18.645 18.645 0 0 1-15.04-12.25L277.69 259.74c-2.31-6.56-0.78-13.86 3.97-18.94s11.96-7.12 18.63-5.23l366.29 102.15c2.37 0.66 4.63 1.8 6.56 3.35l68.87 54.7c7.76 6.15 9.36 17.3 3.64 25.36L492.32 779.31a18.628 18.628 0 0 1-15.22 7.89zM324.8 281.12l157.87 447.25L705 414.01l-52.08-41.37-328.12-91.52z" fill="#FFFFFF" p-id="1793"></path><path d="M477.13 787.2c-0.69 0-1.35-0.04-2.04-0.11-10.23-1.11-17.63-10.31-16.53-20.54l27.42-253.89c1.09-10.27 10.6-17.48 20.54-16.53 10.23 1.11 17.63 10.31 16.53 20.54l-27.42 253.89c-1.02 9.55-9.1 16.64-18.5 16.64z" fill="#FFFFFF" p-id="1794"></path><path d="M504.52 533.31c-4.73 0-9.47-1.78-13.11-5.37-7.32-7.25-7.39-19.05-0.15-26.38L648.3 342.57c7.25-7.32 19.05-7.39 26.37-0.16 7.32 7.25 7.39 19.05 0.15 26.38L517.77 527.77a18.59 18.59 0 0 1-13.25 5.54z" fill="#FFFFFF" p-id="1795"></path><path d="M504.52 533.31c-7.03 0-13.77-4.01-16.93-10.83-4.3-9.34-0.22-20.43 9.1-24.75l225.9-104.28c9.4-4.32 20.43-0.24 24.76 9.12 4.3 9.34 0.22 20.43-9.1 24.75L512.35 531.6a18.857 18.857 0 0 1-7.83 1.71z" fill="#FFFFFF" p-id="1796"></path><path d="M507.21 536.55c-5.46 0-10.85-2.39-14.53-6.99L280.73 265.19c-6.45-8.03-5.15-19.76 2.9-26.2 8.01-6.41 19.79-5.12 26.2 2.9l211.91 264.37c6.45 8.03 5.17 19.76-2.88 26.2a18.563 18.563 0 0 1-11.65 4.09z" fill="#FFFFFF" p-id="1797"></path></svg>