<?xml version="1.0" standalone="no"?><!DOCTYPE svg PUBLIC "-//W3C//DTD SVG 1.1//EN" "http://www.w3.org/Graphics/SVG/1.1/DTD/svg11.dtd"><svg t="1652841316317" class="icon" viewBox="0 0 1024 1024" version="1.1" xmlns="http://www.w3.org/2000/svg" p-id="2484" xmlns:xlink="http://www.w3.org/1999/xlink" width="200" height="200"><defs><style type="text/css">@font-face { font-family: feedback-iconfont; src: url("//at.alicdn.com/t/font_1031158_u69w8yhxdu.woff2?t=1630033759944") format("woff2"), url("//at.alicdn.com/t/font_1031158_u69w8yhxdu.woff?t=1630033759944") format("woff"), url("//at.alicdn.com/t/font_1031158_u69w8yhxdu.ttf?t=1630033759944") format("truetype"); }
</style></defs><path d="M512 512m-512 0a512 512 0 1 0 1024 0 512 512 0 1 0-1024 0Z" fill="#2775C9" p-id="2485"></path><path d="M481.28 321.92v-32a30.72 30.72 0 1 1 61.44 0v31.872c55.584 8.352 93.696 39.968 103.872 84.992a18.144 18.144 0 0 1-17.696 22.144h-16.608c-13.44 0-25.696-7.776-31.392-19.936-10.624-22.528-35.744-35.52-69.184-35.52-41.856 0-70.08 20.544-70.08 51.328 0 24.64 18.752 39.04 64.16 49.792l42.624 9.76c75.2 17.216 107.008 48.256 107.008 103.456 0 61.12-42.688 102.496-112.704 112.256v36.992a30.72 30.72 0 1 1-61.44 0v-36.416c-62.016-7.488-103.936-40.32-113.76-90.56a15.264 15.264 0 0 1 14.976-18.176h25.216c11.424 0 21.824 6.56 26.72 16.896 11.616 24.416 41.344 39.552 78.56 39.552 44.672 0 75.712-22.08 75.712-52.864 0-26.688-19.008-42.08-65.696-53.12l-48-11.296c-68.288-15.68-100.608-48.512-100.608-101.376 0-56.96 42.976-97.888 106.88-107.808zM128 512c0-169.44 110.592-313.152 263.808-363.392A18.432 18.432 0 0 1 416 166.08v10.848c0 16.48-10.016 31.36-25.28 37.536C272.8 262.208 189.696 377.44 189.696 512c0 134.496 83.008 249.696 200.8 297.472 15.392 6.24 25.472 21.184 25.472 37.792v9.024a19.584 19.584 0 0 1-25.76 18.592C237.824 824.16 128 680.864 128 512z m768 0c0 168.48-109.312 311.488-261.12 362.528a20.352 20.352 0 0 1-26.88-19.296V848c0-17.024 10.304-32.32 26.048-38.784 117.472-47.904 200.224-162.944 200.224-297.216 0-134.144-82.56-249.088-199.872-297.088A42.464 42.464 0 0 1 608 175.616v-6.592a20.544 20.544 0 0 1 27.104-19.456C786.784 200.672 896 343.648 896 512z" fill="#FFFFFF" p-id="2486"></path></svg>