<svg width="60" height="60" viewBox="0 0 60 60" fill="none" xmlns="http://www.w3.org/2000/svg">
<path fill-rule="evenodd" clip-rule="evenodd" d="M30 60C46.5685 60 60 46.5685 60 30C60 13.4314 46.5685 0 30 0C13.4314 0 0 13.4314 0 30C0 46.5685 13.4314 60 30 60Z" fill="#26A17B"/>
<path d="M49.4118 31.7833C49.4118 29.746 43.1193 28.0443 34.7357 27.6387V23.0786H44.5626V15.8824H17.1315V23.0786H27.1003V27.6352C18.6806 28.0344 12.3529 29.74 12.3529 31.7833C12.3529 33.827 18.6806 35.5327 27.1003 35.9321V50.4706H34.7357V35.9289C43.1193 35.523 49.4118 33.8213 49.4118 31.7833ZM17.2941 30.7055C17.2941 29.5213 21.4875 28.5252 27.1765 28.2353V33.1765C21.4875 32.8866 17.2941 31.8902 17.2941 30.7055ZM34.5882 33.1765V28.2353C40.2896 28.5393 44.4706 29.5301 44.4706 30.7058C44.4706 31.8817 40.2896 32.8727 34.5882 33.1765Z" fill="white"/>
</svg>
